<?xml version="1.0" encoding="iso-8859-1"?>
<!-- Generator: Adobe Illustrator 19.0.0, SVG Export Plug-In . SVG Version: 6.00 Build 0)  -->
<svg version="1.1" id="Layer_1" xmlns="http://www.w3.org/2000/svg" xmlns:xlink="http://www.w3.org/1999/xlink" x="0px" y="0px"
	 viewBox="0 0 512 512" style="enable-background:new 0 0 512 512;" xml:space="preserve">
<circle style="fill:#88C5CC;" cx="256" cy="256" r="256"/>
<path style="fill:#80B9BF;" d="M481.452,377.336c-0.08-0.184-0.144-0.376-0.228-0.564c-0.272-0.744-0.572-1.464-0.888-2.188
	c-0.24-0.64-0.496-1.272-0.768-1.916c-0.268-0.744-0.568-1.468-0.888-2.196c-0.24-0.64-0.496-1.272-0.768-1.908
	c-0.268-0.736-0.564-1.46-0.88-2.18c-0.24-0.64-0.496-1.268-0.768-1.912c-0.272-0.748-0.576-1.488-0.9-2.224
	c-0.236-0.632-0.484-1.256-0.756-1.888c-0.272-0.748-0.576-1.48-0.9-2.22c-0.236-0.632-0.484-1.252-0.756-1.888
	c-0.272-0.748-0.572-1.476-0.9-2.22c-0.236-0.624-0.484-1.248-0.752-1.86c-0.28-0.752-0.58-1.5-0.908-2.244
	c-0.24-0.628-0.492-1.252-0.756-1.876c-0.276-0.752-0.58-1.484-0.9-2.22c-0.24-0.632-0.492-1.264-0.764-1.908
	c-0.272-0.744-0.572-1.464-0.892-2.196c-0.24-0.64-0.492-1.272-0.764-1.912c-0.272-0.732-0.564-1.456-0.884-2.176
	c-0.24-0.644-0.5-1.28-0.772-1.92c-0.272-0.74-0.572-1.46-0.892-2.196c-0.24-0.64-0.492-1.264-0.764-1.904
	c-0.272-0.74-0.572-1.468-0.892-2.196c-0.236-0.636-0.488-1.264-0.76-1.896c-0.276-0.752-0.576-1.484-0.904-2.228
	c-0.236-0.616-0.48-1.252-0.752-1.86c-0.272-0.752-0.58-1.5-0.904-2.244c-0.24-0.632-0.492-1.252-0.76-1.884
	c-0.272-0.752-0.576-1.484-0.9-2.22c-0.236-0.632-0.488-1.256-0.756-1.884c-0.272-0.752-0.576-1.484-0.9-2.224
	c-0.236-0.628-0.492-1.252-0.756-1.884c-0.272-0.752-0.576-1.484-0.9-2.224c-0.236-0.62-0.484-1.252-0.752-1.86
	c-0.276-0.752-0.58-1.492-0.904-2.232c-0.24-0.636-0.496-1.268-0.768-1.912c-1.044-2.812-2.372-5.548-4.076-8.136
	c-0.68-1.036-1.412-2.02-2.168-2.964c-0.252-0.312-0.512-0.6-0.772-0.908c-0.524-0.616-1.06-1.232-1.608-1.796
	c-0.32-0.332-0.644-0.648-0.972-0.964c-0.528-0.512-1.076-1.004-1.624-1.48c-0.352-0.304-0.7-0.6-1.068-0.9
	c-0.572-0.452-1.156-0.884-1.752-1.296c-0.28-0.204-0.56-0.408-0.84-0.592c-0.172-0.428-0.332-0.868-0.528-1.304
	c-0.244-0.672-0.512-1.352-0.82-2.032c-0.252-0.688-0.524-1.376-0.836-2.068c-0.244-0.676-0.512-1.352-0.82-2.032
	c-0.252-0.692-0.524-1.38-0.836-2.068c-0.244-0.672-0.504-1.344-0.812-2.02c-0.252-0.688-0.52-1.38-0.836-2.072
	c-0.252-0.692-0.52-1.38-0.836-2.076c-0.756-2.1-1.812-4.212-3.252-6.408c-0.868-1.312-1.82-2.516-2.816-3.668
	c-0.252-0.292-0.512-0.576-0.768-0.856c-0.952-1.04-1.944-2.016-2.996-2.9c-0.076-0.076-0.144-0.14-0.224-0.208
	c-1.156-0.956-2.376-1.812-3.624-2.596c-0.252-0.148-0.492-0.292-0.744-0.436c-1.212-0.72-2.448-1.368-3.728-1.916
	c-0.06-0.024-0.108-0.06-0.164-0.084c-1.412-0.592-2.852-1.084-4.312-1.472c-0.14-0.036-0.276,0.596-0.416,0.568
	c-2.988-0.756-6.06-0.328-9.148-0.328c-0.016,0-0.032,0-0.052,0c-1.572,0-3.136,0-4.696,0c-0.008,0-1.276,0-1.276,0v-0.404
	c-4,0.864-8.46,2.5-12.552,5.452c-1.568,1.128-2.836,2.088-4.416,3.176c-0.204,0.036-0.252-0.04-0.448,0.028
	c-2.552,0.852-4.124,2.196-5.28,3.804c-10.624,6.712-21.656,12.356-33.092,16.916c-3.652-1.328-7.86-1.916-13.012-0.896
	c-5.964,1.196-9.208,4.628-11.076,8.8c-9.104,2.396-18.376,4.14-27.776,5.324c-3.096-3.584-6.992-6.216-12.344-6.216
	c-6.2,0-10.404,3.416-13.7,7.96c-0.768,0-1.528,0.04-2.3,0.04c-2.024,0-4.036-0.056-6.052-0.104
	c-2.496-0.068-4.984-0.172-7.464-0.32c-0.2-0.008-0.396-0.02-0.592-0.032c-2.372-0.144-4.74-0.332-7.1-0.56
	c-0.308-0.024-0.62-0.056-0.928-0.084c-2.26-0.224-4.512-0.48-6.76-0.76c-0.22-0.032-0.44-0.064-0.66-0.084
	c-2.788-4.724-6.88-8.616-13.656-9.976c-7.152-1.424-12.664,0.584-17.22,3.604c-0.416-0.116-0.836-0.244-1.252-0.368
	c-1.756-0.508-3.508-1.04-5.252-1.588c-0.832-0.26-1.66-0.552-2.488-0.824c-1.66-0.564-3.316-1.12-4.964-1.728
	c-0.908-0.328-1.808-0.68-2.712-1.024c-1.56-0.584-3.12-1.188-4.668-1.812c-0.98-0.408-1.952-0.828-2.928-1.252
	c-1.46-0.616-2.924-1.244-4.372-1.908c-1.06-0.476-2.104-0.992-3.156-1.484c-1.356-0.644-2.712-1.28-4.056-1.956
	c-0.712-0.36-1.416-0.748-2.124-1.104c-1.612-1.788-3.948-3.196-7.296-3.968c-0.46-0.26-0.92-0.532-1.38-0.792
	c-1.112-0.648-2.236-1.272-3.34-1.944c-1.424-0.868-2.832-1.776-4.24-2.684c-0.884-0.572-1.784-1.108-2.664-1.696
	c-2.284-1.516-4.544-3.084-6.78-4.696c-0.956-0.696-1.932-1.324-2.924-1.9c-0.716-0.416-1.448-0.756-2.18-1.108
	c-0.288-0.136-0.568-0.304-0.856-0.432c-1-0.44-2.02-0.836-3.044-1.172c-0.024-0.012-0.048-0.024-0.072-0.032
	c-4.112-1.344-8.388-1.808-12.584-1.472c-0.096,0.008-0.196,0.004-0.296,0.02c-0.8,0.076-1.588,0.2-2.38,0.328
	c-0.272,0.052-0.548,0.068-0.816,0.112l0,0c-8.508,1.624-16.432,6.66-21.736,14.7c-4.008,6.12-5.008,11.16-5.008,18.096l0.86,0.468
	c-0.004,0.18-0.008,0.368-0.008,0.548c-6.32,2.848-11.992,7.468-16.176,13.844c-7.164,10.892-8.372,24.252-4.428,35.864
	c0.668,2.576,1.572,5.076,2.704,7.456c0.488,1.388,1.032,2.748,1.66,4.072c0.484,1.384,1.028,2.744,1.652,4.056
	c0.484,1.376,1.024,2.736,1.648,4.048c0.484,1.38,1.024,2.74,1.652,4.06c0.488,1.38,1.028,2.74,1.656,4.06
	c0.488,1.384,1.024,2.744,1.652,4.06c0.484,1.38,1.024,2.736,1.652,4.056c0.484,1.38,1.024,2.74,1.648,4.06
	c0.488,1.376,1.028,2.74,1.656,4.06c0.484,1.376,1.02,2.728,1.648,4.044c0.488,1.384,1.024,2.736,1.652,4.056
	c0.488,1.384,1.024,2.752,1.656,4.072c0.484,1.372,1.02,2.724,1.648,4.036c0.484,1.376,1.02,2.74,1.652,4.052
	c0.484,1.376,1.016,2.728,1.644,4.04c0.488,1.384,1.024,2.744,1.656,4.064c0.468,1.328,0.992,2.636,1.592,3.916
	c0.664,2.46,1.536,4.86,2.62,7.156c0.484,1.384,1.028,2.752,1.656,4.072c0.484,1.376,1.024,2.732,1.648,4.048
	c0.488,1.384,1.028,2.744,1.656,4.064c0.484,1.376,1.024,2.736,1.652,4.048c0.484,1.384,1.028,2.744,1.656,4.064
	c0.484,1.376,1.024,2.736,1.648,4.048c0.484,1.376,1.024,2.744,1.652,4.056c0.488,1.392,1.028,2.752,1.656,4.072
	c0.488,1.384,1.024,2.736,1.652,4.056c0.488,1.376,1.024,2.74,1.656,4.056c0.484,1.376,1.02,2.736,1.648,4.052
	c0.488,1.38,1.028,2.74,1.656,4.06c0.484,1.376,1.02,2.736,1.648,4.04c0.472,1.348,1,2.664,1.608,3.944
	C156.772,496.792,204.596,512,256,512C353.476,512,438.22,457.508,481.452,377.336z"/>
<path style="opacity:0.4;fill:#F5F5F5;enable-background:new    ;" d="M270.804,0.456C265.9,0.176,260.972,0,256,0
	c-13.3,0-26.36,1.016-39.116,2.972c-0.42,6.456-0.08,12.996,1.068,19.136c1.592,8.724,4.528,16.564,7.84,23.424
	c6.732,13.752,14.636,24.184,21.352,34.036c6.78,9.78,12.584,18.868,16.168,28.008c1.796,4.568,3.06,9.128,3.708,13.812l0.216,1.752
	c0.032,0.224,0.06,0.752,0.088,0.72l0.068,1.156l0.208,4.064c0.096,2.68,0.084,5.328-0.04,7.952
	c-0.46,10.58-2.888,20.46-7.452,30.96c-2.236,5.264-4.984,10.772-7.668,16.836c-2.672,6.036-5.196,12.736-6.644,19.78
	c-1.488,7.044-1.856,14.296-1.308,21.2c0.54,6.916,1.904,13.532,3.68,19.86c1.064,3.808,4.808,6.336,8.832,5.76
	c4.388-0.604,7.432-4.664,6.824-9.048l-0.008-0.076c-1.612-11.48-1.236-22.568,2.34-32.2c3.388-9.704,10.284-18.68,17.208-30.084
	c6.972-11.272,12.72-25.08,15.22-39.02c0.656-3.484,1.172-6.98,1.532-10.456l0.46-5.188l0.088-1.156l0.068-1.592l0.072-2.86
	c0.068-7.648-0.908-15.284-2.624-22.54c-3.444-14.56-9.584-27.312-15.316-38.724c-5.752-11.388-11.26-21.776-14.076-30.828
	c-1.416-4.5-2.124-8.552-2.16-12.06c-0.036-3.532,0.528-6.56,1.628-9.664C268.908,4.168,269.764,2.332,270.804,0.456z"/>
<path style="fill:#992B1F;" d="M80,280c0-6.936,1-11.98,5.008-18.1c10.58-16.04,31.588-20.116,46.888-9.044
	C168.564,279.372,211.492,292,256,292s87.416-12.628,124.08-39.144c15.328-11.076,36.344-6.996,46.888,9.044
	c3.94,6.016,5,11.292,5.036,18.1L257.16,377.668L80,280z"/>
<g>
	<path style="fill:#8C271C;" d="M119.9,252.856C156.564,279.372,199.492,292,244,292c2.004,0,4-0.056,6-0.1
		c-42.36-1.084-83.084-13.724-118.1-39.044c-7.632-5.524-16.684-7.268-25.156-5.656C111.332,248.064,115.82,249.908,119.9,252.856z"
		/>
	<path style="fill:#8C271C;" d="M426.964,261.9c-7.732-11.752-21.088-17.06-33.716-14.7c8.516,1.628,16.428,6.66,21.716,14.7
		c3.94,6.016,5,11.292,5.036,18.1l-168.88,94.34l6.04,3.328L432,280C431.964,273.192,430.908,267.916,426.964,261.9z"/>
</g>
<path style="fill:#F2CB91;" d="M256,412c-65.168,0-128.004-23.36-181.708-62.176c-17.144-12.38-21.44-36.996-9.62-54.968
	c11.82-17.976,35.316-22.556,52.46-10.12C158.164,314.4,206.2,332,256,332s97.844-17.6,138.876-47.264
	c17.144-12.424,40.64-7.852,52.46,10.12s7.488,42.588-9.656,54.968C383.98,388.64,321.168,412,256,412z"/>
<g>
	<path style="fill:#E6C18A;" d="M93.132,284.736C134.164,314.4,182.2,332,232,332c4.012,0,8.012-0.156,12-0.384
		c-45.492-2.584-89.144-19.612-126.868-46.892c-10.148-7.36-22.504-8.716-33.364-4.908C87.012,280.98,90.172,282.584,93.132,284.736
		z"/>
	<path style="fill:#E6C18A;" d="M447.336,294.856c-9.78-14.872-27.544-20.54-43.092-15.028c7.484,2.628,14.268,7.692,19.092,15.028
		c11.82,17.972,7.488,42.588-9.656,54.968c-50.4,36.424-108.82,59.24-169.684,61.912c3.992,0.172,7.992,0.264,12,0.264
		c65.168,0,127.98-23.36,181.684-62.176C454.828,337.444,459.156,312.828,447.336,294.856z"/>
</g>
<path style="fill:#FFD464;" d="M240,324c-10.672,0-13.52-9.752-16.036-18.344c-2.848-9.744-5.276-16.244-12.752-17.736
	c-7.572-1.524-12.308,2.82-17.768,7.844c-6.32,5.804-14.176,13.048-26.932,7.94c-11.812-4.728-12.456-14.328-12.928-21.34
	C153.08,274.824,152.888,272,144,272c-2.208,0-4-1.788-4-4s1.792-4,4-4c16.368,0,17.06,10.308,17.568,17.84
	c0.484,7.188,1.124,11.732,7.92,14.44c7.688,3.084,11.856-0.252,18.544-6.412c5.868-5.4,13.168-12.12,24.752-9.792
	c12.78,2.556,16.152,14.08,18.856,23.336c2.56,8.752,4.124,12.584,8.356,12.584c5.156,0,8.132-5.216,12.42-13.788
	c4.268-8.536,9.104-18.212,19.58-18.212c10.152,0,15.144,9.38,19.156,16.916c4.628,8.696,7.144,12.36,11.872,11.204
	c4.58-1.144,5.484-5.384,6.352-14.116c0.824-8.252,1.948-19.556,13.832-21.92c11.772-2.36,18.924,3.5,24.676,8.204
	c5.788,4.744,8.82,6.896,14.32,4.14c5.884-2.936,5.8-7.628,5.188-15.052c-0.508-6.048-1.196-14.324,7.336-17.168
	c2.096-0.708,4.36,0.432,5.056,2.532c0.704,2.092-0.428,4.36-2.524,5.064c-2.14,0.716-2.456,2.216-1.9,8.916
	c0.58,6.916,1.444,17.352-9.58,22.868c-10.392,5.204-17.36-0.516-22.968-5.096c-5.36-4.388-10-8.16-18.04-6.56
	c-5.5,1.096-6.492,5.384-7.436,14.88c-0.82,8.22-1.836,18.44-12.372,21.084c-11.288,2.852-16.6-7.172-20.88-15.204
	c-4.076-7.656-7.112-12.676-12.088-12.676c-5.156,0-8.132,5.212-12.416,13.788C255.312,314.324,250.472,324,240,324z"/>
<g>
	<circle style="fill:#F5F5F5;" cx="96" cy="308" r="4"/>
	<circle style="fill:#F5F5F5;" cx="88" cy="328" r="4"/>
	<circle style="fill:#F5F5F5;" cx="120" cy="324" r="4"/>
	<circle style="fill:#F5F5F5;" cx="120" cy="348" r="4"/>
	<circle style="fill:#F5F5F5;" cx="164" cy="372" r="4"/>
	<circle style="fill:#F5F5F5;" cx="216" cy="360" r="4"/>
	<circle style="fill:#F5F5F5;" cx="232" cy="376" r="4"/>
	<circle style="fill:#F5F5F5;" cx="272" cy="372" r="4"/>
	<circle style="fill:#F5F5F5;" cx="316" cy="344" r="4"/>
	<circle style="fill:#F5F5F5;" cx="252" cy="348" r="4"/>
	<circle style="fill:#F5F5F5;" cx="304" cy="372" r="4"/>
	<circle style="fill:#F5F5F5;" cx="360" cy="332" r="4"/>
	<circle style="fill:#F5F5F5;" cx="340" cy="352" r="4"/>
	<circle style="fill:#F5F5F5;" cx="380" cy="336" r="4"/>
	<circle style="fill:#F5F5F5;" cx="388" cy="308" r="4"/>
	<circle style="fill:#F5F5F5;" cx="184" cy="344" r="4"/>
	<circle style="fill:#F5F5F5;" cx="152" cy="348" r="4"/>
</g>
<g>
</g>
<g>
</g>
<g>
</g>
<g>
</g>
<g>
</g>
<g>
</g>
<g>
</g>
<g>
</g>
<g>
</g>
<g>
</g>
<g>
</g>
<g>
</g>
<g>
</g>
<g>
</g>
<g>
</g>
</svg>
