<?xml version="1.0" encoding="iso-8859-1"?>
<!-- Generator: Adobe Illustrator 19.0.0, SVG Export Plug-In . SVG Version: 6.00 Build 0)  -->
<svg version="1.1" id="Layer_1" xmlns="http://www.w3.org/2000/svg" xmlns:xlink="http://www.w3.org/1999/xlink" x="0px" y="0px"
	 viewBox="0 0 512 512" style="enable-background:new 0 0 512 512;" xml:space="preserve">
<circle style="fill:#FF931E;" cx="256" cy="256" r="245.801"/>
<circle style="fill:#DDE9ED;" cx="256" cy="256" r="170.327"/>
<polygon style="fill:#C9171D;" points="295.777,256 256,382.47 216.223,256 256,129.53 "/>
<path d="M256,512c-68.381,0-132.667-26.628-181.019-74.981C26.628,388.667,0,324.381,0,256S26.628,123.333,74.981,74.981
	C123.333,26.628,187.619,0,256,0s132.667,26.628,181.019,74.981C485.372,123.333,512,187.619,512,256
	s-26.628,132.667-74.981,181.019C388.667,485.372,324.381,512,256,512z M256,20.398C126.089,20.398,20.398,126.089,20.398,256
	S126.089,491.602,256,491.602S491.602,385.911,491.602,256S385.911,20.398,256,20.398z"/>
<path d="M256,436.526c-99.542,0-180.526-80.984-180.526-180.526S156.458,75.474,256,75.474S436.526,156.458,436.526,256
	S355.542,436.526,256,436.526z M256,95.873c-88.295,0-160.127,71.833-160.127,160.127S167.705,416.128,256,416.128
	S416.128,344.295,416.128,256S344.295,95.873,256,95.873z"/>
<path d="M256,392.669c-4.454,0-8.393-2.89-9.729-7.139l-39.777-126.47c-0.626-1.992-0.626-4.128,0-6.12l39.777-126.47
	c1.336-4.249,5.275-7.139,9.729-7.139c4.454,0,8.393,2.89,9.729,7.139l39.777,126.47c0.626,1.992,0.626,4.128,0,6.12l-39.777,126.47
	C264.393,389.779,260.454,392.669,256,392.669z M226.915,256L256,348.476L285.085,256L256,163.524L226.915,256z"/>
<path d="M139.729,266.199h-18.359c-5.632,0-10.199-4.567-10.199-10.199c0-5.632,4.567-10.199,10.199-10.199h18.359
	c5.632,0,10.199,4.567,10.199,10.199C149.928,261.632,145.361,266.199,139.729,266.199z"/>
<path d="M390.629,266.199h-18.359c-5.632,0-10.199-4.567-10.199-10.199c0-5.632,4.567-10.199,10.199-10.199h18.359
	c5.632,0,10.199,4.567,10.199,10.199C400.829,261.632,396.262,266.199,390.629,266.199z"/>
<path d="M347.789,74.893c-1.482,0-2.987-0.323-4.412-1.009c-9.673-4.652-19.797-8.551-30.089-11.589
	c-5.403-1.595-8.489-7.269-6.894-12.67c1.594-5.401,7.271-8.489,12.67-6.894c11.339,3.349,22.492,7.645,33.15,12.769
	c5.077,2.442,7.213,8.535,4.773,13.612C355.232,72.762,351.587,74.893,347.789,74.893z"/>
<path d="M468.143,266.199c-5.632,0-10.199-4.567-10.199-10.199c0-58.683-25.48-114.378-69.906-152.802
	c-4.26-3.685-4.727-10.126-1.041-14.386c3.686-4.26,10.129-4.726,14.386-1.041c48.909,42.301,76.96,103.619,76.96,168.23
	C478.343,261.632,473.775,266.199,468.143,266.199z"/>
<g>
</g>
<g>
</g>
<g>
</g>
<g>
</g>
<g>
</g>
<g>
</g>
<g>
</g>
<g>
</g>
<g>
</g>
<g>
</g>
<g>
</g>
<g>
</g>
<g>
</g>
<g>
</g>
<g>
</g>
</svg>
