<?xml version="1.0" encoding="iso-8859-1"?>
<!-- Generator: Adobe Illustrator 19.0.0, SVG Export Plug-In . SVG Version: 6.00 Build 0)  -->
<svg version="1.1" id="Layer_1" xmlns="http://www.w3.org/2000/svg" xmlns:xlink="http://www.w3.org/1999/xlink" x="0px" y="0px"
	 viewBox="0 0 512 512" style="enable-background:new 0 0 512 512;" xml:space="preserve">
<path style="fill:#F270A8;" d="M377.402,377.402H134.598h-5.278c-8.762,0-15.835-7.073-15.835-15.835s7.073-15.835,15.835-15.835
	h5.278h242.804h5.278c8.762,0,15.835,7.073,15.835,15.835s-7.073,15.835-15.835,15.835H377.402z"/>
<g>
	<path style="fill:#FFD311;" d="M377.402,377.402v15.835c0,14.568-11.824,26.392-26.392,26.392H160.99
		c-14.568,0-26.392-11.824-26.392-26.392v-15.835H377.402z"/>
	<path style="fill:#FFD311;" d="M377.402,329.897v15.835H134.598v-15.835c0-14.568,11.824-26.392,26.392-26.392H351.01
		C365.579,303.505,377.402,315.329,377.402,329.897z"/>
</g>
<rect x="139.876" y="208.495" style="fill:#7E8488;" width="232.247" height="63.34"/>
<g>
	<rect x="55.423" y="451.299" style="fill:#AFB6BB;" width="42.227" height="52.784"/>
	<rect x="414.351" y="451.299" style="fill:#AFB6BB;" width="42.227" height="52.784"/>
	<rect x="414.351" y="129.32" style="fill:#AFB6BB;" width="42.227" height="142.515"/>
	<rect x="55.423" y="129.32" style="fill:#AFB6BB;" width="42.227" height="142.515"/>
</g>
<g>
	<path style="fill:#FFD311;" d="M366.845,7.918h100.289c5.806,0,10.557,4.751,10.557,10.557V129.32h-21.113h-42.227h-47.505V7.918z"
		/>
	<rect x="145.155" y="7.918" style="fill:#FFD311;" width="110.845" height="121.402"/>
</g>
<g>
	<rect x="256" y="7.918" style="fill:#F270A8;" width="110.845" height="121.402"/>
	<path style="fill:#F270A8;" d="M44.866,7.918h100.289V129.32H97.649H55.423H34.309V18.474C34.309,12.668,39.06,7.918,44.866,7.918z
		"/>
</g>
<path style="fill:#00B4D7;" d="M456.577,271.835h-42.227h-42.227H139.876H97.649H55.423H34.309v179.464h21.113h42.227h316.701
	h42.227h21.113V271.835H456.577z M382.68,377.402h-5.278v15.835c0,14.568-11.824,26.392-26.392,26.392H160.99
	c-14.568,0-26.392-11.824-26.392-26.392v-15.835h-5.278c-8.762,0-15.835-7.073-15.835-15.835s7.073-15.835,15.835-15.835h5.278
	v-15.835c0-14.568,11.824-26.392,26.392-26.392H351.01c14.568,0,26.392,11.824,26.392,26.392v15.835h5.278
	c8.762,0,15.835,7.073,15.835,15.835S391.442,377.402,382.68,377.402z"/>
<g>
	<path style="fill:#FBC319;" d="M477.691,65.979V18.474c0-5.806-4.751-10.557-10.557-10.557H366.845v58.062H477.691z"/>
	<rect x="145.155" y="7.918" style="fill:#FBC319;" width="110.845" height="58.062"/>
</g>
<g>
	<rect x="256" y="7.918" style="fill:#EE4A97;" width="110.845" height="58.062"/>
	<path style="fill:#EE4A97;" d="M145.155,7.918H44.866c-5.806,0-10.557,4.751-10.557,10.557v47.505h110.845V7.918z"/>
</g>
<path style="fill:#00A6D4;" d="M160.99,419.629c-14.568,0-26.392-11.824-26.392-26.392v-15.835h-5.278
	c-8.762,0-15.835-7.073-15.835-15.835s7.073-15.835,15.835-15.835h5.278v-15.835c0-14.568,11.824-26.392,26.392-26.392h16.851
	c-4.669-10.268-8.799-20.829-12.33-31.67h-25.634H97.649H55.423H34.309v179.464h21.113h42.227h223.202
	c-18.001-8.91-34.985-19.538-50.764-31.67H160.99z"/>
<path d="M467.134,0H44.866C34.68,0,26.392,8.288,26.392,18.474v118.763h21.113v113.485H63.34V137.237h26.392v113.485h15.835V137.237
	h300.866v113.485h15.835V137.237h26.392v113.485h15.835V137.237h21.113V18.474C485.608,8.288,477.32,0,467.134,0z M469.773,121.402
	h-95.01V34.309h-15.835v87.093h-95.01V34.309h-15.835v87.093h-95.01V34.309h-15.835v87.093h-95.01V18.474
	c0-1.43,1.209-2.639,2.639-2.639h422.268c1.43,0,2.639,1.209,2.639,2.639V121.402z"/>
<path d="M160.99,427.546H351.01c18.918,0,34.309-15.392,34.309-34.309v-8.063c11.859-1.317,21.113-11.401,21.113-23.607
	c0-12.206-9.254-22.289-21.113-23.607v-8.063c0-18.918-15.392-34.309-34.309-34.309H160.99c-18.918,0-34.309,15.392-34.309,34.309
	v8.063c-11.859,1.317-21.113,11.401-21.113,23.607c0,12.206,9.254,22.289,21.113,23.607v8.063
	C126.68,412.155,142.072,427.546,160.99,427.546z M369.485,393.237c0,10.186-8.288,18.474-18.474,18.474H160.99
	c-10.186,0-18.474-8.288-18.474-18.474v-7.918h226.969V393.237z M160.99,311.423H351.01c10.186,0,18.474,8.288,18.474,18.474v7.918
	H142.515v-7.918C142.515,319.711,150.804,311.423,160.99,311.423z M121.402,361.567c0-4.366,3.551-7.918,7.918-7.918H382.68
	c4.366,0,7.918,3.551,7.918,7.918s-3.551,7.918-7.918,7.918H129.32C124.953,369.485,121.402,365.933,121.402,361.567z"/>
<rect x="55.423" y="295.588" style="fill:#FFFFFF;" width="21.113" height="15.835"/>
<rect x="55.423" y="411.711" width="21.113" height="15.835"/>
<rect x="435.464" y="295.588" width="21.113" height="15.835"/>
<g>
	<rect x="435.464" y="411.711" style="fill:#FFFFFF;" width="21.113" height="15.835"/>
	<polygon style="fill:#FFFFFF;" points="58.062,71.258 73.897,71.258 73.897,47.505 92.371,47.505 92.371,31.67 58.062,31.67 	"/>
</g>
<polygon points="390.598,71.258 406.433,71.258 406.433,47.505 424.907,47.505 424.907,31.67 390.598,31.67 "/>
<g>
	<rect x="282.392" y="79.175" style="fill:#FFFFFF;" width="21.113" height="15.835"/>
	<rect x="303.505" y="58.062" style="fill:#FFFFFF;" width="21.113" height="15.835"/>
</g>
<rect x="176.825" y="36.948" width="21.113" height="15.835"/>
<rect x="197.938" y="58.062" width="21.113" height="15.835"/>
<path d="M380.041,200.577H131.959v63.34H26.392v195.299h21.113V512h58.062v-52.783h92.371v-15.835H42.227V279.753h427.546v163.629
	H219.052v15.835h187.381V512h58.062v-52.783h21.113V263.918H380.041V200.577z M63.34,459.217h26.392v36.948H63.34V459.217z
	 M364.206,263.918H147.794v-15.835H287.67v-15.835H147.794v-15.835h216.412V263.918z M448.66,496.165h-26.392v-36.948h26.392
	V496.165z"/>
<rect x="303.505" y="232.247" style="fill:#FFFFFF;" width="31.67" height="15.835"/>
<g>
</g>
<g>
</g>
<g>
</g>
<g>
</g>
<g>
</g>
<g>
</g>
<g>
</g>
<g>
</g>
<g>
</g>
<g>
</g>
<g>
</g>
<g>
</g>
<g>
</g>
<g>
</g>
<g>
</g>
</svg>
