<?xml version="1.0" encoding="iso-8859-1"?>
<!-- Generator: Adobe Illustrator 19.0.0, SVG Export Plug-In . SVG Version: 6.00 Build 0)  -->
<svg version="1.1" id="Layer_1" xmlns="http://www.w3.org/2000/svg" xmlns:xlink="http://www.w3.org/1999/xlink" x="0px" y="0px"
	 viewBox="0 0 511.984 511.984" style="enable-background:new 0 0 511.984 511.984;" xml:space="preserve">
<g>
	<path style="fill:#434A54;" d="M362.649,490.626c-5.875,0-10.655-4.781-10.655-10.672c0-32.249-16.03-44.03-16.718-44.499
		l0.156,0.078l11.812-17.765c1.062,0.719,26.093,17.874,26.093,62.186C373.337,485.845,368.555,490.626,362.649,490.626z"/>
	<path style="fill:#434A54;" d="M85.338,437.299H64.003c-5.891,0-10.664-4.766-10.664-10.655c0-5.891,4.773-10.672,10.664-10.672
		h21.335c5.891,0,10.664,4.781,10.664,10.672C96.002,432.533,91.228,437.299,85.338,437.299z"/>
	<path style="fill:#434A54;" d="M64.003,469.33c-5.891,0-10.664-4.781-10.664-10.688v-31.999c0-5.891,4.773-10.672,10.664-10.672
		c5.89,0,10.663,4.781,10.663,10.672v31.999C74.666,464.549,69.892,469.33,64.003,469.33z"/>
</g>
<path style="fill:#CCD1D9;" d="M319.964,170.659h-63.99c-5.891,0-10.672,4.78-10.672,10.671v85.326
	c0,5.897,4.781,10.679,10.672,10.679h63.99c5.906,0,10.672-4.781,10.672-10.679V181.33
	C330.636,175.439,325.87,170.659,319.964,170.659z"/>
<g>
	<path style="fill:#AAB2BC;" d="M309.339,191.994c-5.906,0-10.688,4.773-10.688,10.664c0,5.89,4.781,10.671,10.688,10.671h21.297
		v-21.335L309.339,191.994L309.339,191.994z"/>
	<path style="fill:#AAB2BC;" d="M309.339,223.993c-5.906,0-10.688,4.773-10.688,10.664c0,5.89,4.781,10.671,10.688,10.671h21.297
		v-21.335H309.339z"/>
</g>
<path style="fill:#FFCE54;" d="M341.338,255.961h-256c-5.891,0-10.672,4.773-10.672,10.672v160.026
	c0,5.89,4.781,10.671,10.672,10.671h256c5.875,0,10.656-4.781,10.656-10.671V266.633
	C351.994,260.734,347.213,255.961,341.338,255.961z"/>
<path style="opacity:0.2;fill:#FFFFFF;enable-background:new    ;" d="M341.338,255.961h-21.343c5.891,0,10.656,4.773,10.656,10.672
	v160.026c0,5.89-4.766,10.671-10.656,10.671h21.343c5.875,0,10.656-4.781,10.656-10.671V266.633
	C351.994,260.734,347.213,255.961,341.338,255.961z"/>
<path style="fill:#AAB2BC;" d="M383.993,479.954c0,11.781-9.562,21.343-21.344,21.343c-11.78,0-21.312-9.562-21.312-21.343
	c0-11.78,9.531-21.327,21.312-21.327C374.431,458.627,383.993,468.174,383.993,479.954z"/>
<path style="fill:#656D78;" d="M362.649,511.953c-17.624,0-31.998-14.344-31.998-31.999c0-17.64,14.374-31.999,31.998-31.999
	c17.656,0,32,14.359,32,31.999C394.649,497.609,380.305,511.953,362.649,511.953z M362.649,469.299
	c-5.875,0-10.655,4.781-10.655,10.655c0,5.875,4.78,10.672,10.655,10.672c5.891,0,10.688-4.797,10.688-10.672
	C373.337,474.08,368.54,469.299,362.649,469.299z"/>
<g>
	<path style="fill:#434A54;" d="M181.335,511.937c-5.891,0-10.672-4.766-10.672-10.672V351.989c0-5.891,4.781-10.656,10.672-10.656
		s10.664,4.766,10.664,10.656v149.276C191.999,507.172,187.225,511.937,181.335,511.937z"/>
	<path style="fill:#434A54;" d="M234.115,490.079c-2.734,0-5.461-1.047-7.547-3.125l-105.56-105.56
		c-4.164-4.156-4.164-10.922,0-15.094c4.164-4.156,10.922-4.156,15.085,0l105.56,105.561c4.164,4.172,4.164,10.937,0,15.093
		C239.567,489.032,236.841,490.079,234.115,490.079z"/>
	<path style="fill:#434A54;" d="M255.973,437.299H106.688c-5.89,0-10.663-4.781-10.663-10.671c0-5.891,4.773-10.672,10.663-10.672
		h149.285c5.891,0,10.664,4.781,10.664,10.672C266.638,432.517,261.864,437.299,255.973,437.299z"/>
	<path style="fill:#434A54;" d="M128.555,490.079c-2.734,0-5.461-1.047-7.547-3.125c-4.164-4.156-4.164-10.921,0-15.093
		L226.568,366.3c4.164-4.156,10.921-4.156,15.085,0c4.164,4.172,4.164,10.938,0,15.094l-105.56,105.56
		C134.016,489.032,131.282,490.079,128.555,490.079z"/>
</g>
<ellipse style="fill:#AAB2BC;" cx="181.363" cy="426.662" rx="21.335" ry="21.327"/>
<path style="fill:#E6E9ED;" d="M255.973,277.304c-5.891,0-10.672-4.781-10.672-10.671V10.663C245.301,4.772,250.082,0,255.973,0
	c5.891,0,10.664,4.772,10.664,10.663v255.97C266.638,272.522,261.864,277.304,255.973,277.304z"/>
<g>
	<path style="fill:#ED5564;" d="M450.304,64.248L257.528,21.585c-1.523-0.336-3.102-0.336-4.625,0L61.682,64.256
		c-4.875,1.086-8.344,5.413-8.344,10.405v21.336c0,5.891,4.773,10.663,10.664,10.663H447.99c5.891,0,10.656-4.772,10.656-10.663
		V74.661C458.647,69.661,455.179,65.334,450.304,64.248z"/>
	<path style="fill:#ED5564;" d="M149.336,266.656h-42.671c-5.89,0-10.663-4.773-10.663-10.664s4.773-10.664,10.663-10.664h42.671
		c5.891,0,10.664,4.773,10.664,10.664C160,261.883,155.226,266.656,149.336,266.656z"/>
	<path style="fill:#ED5564;" d="M223.967,266.656h-42.663c-5.891,0-10.664-4.773-10.664-10.664s4.773-10.664,10.664-10.664h42.663
		c5.898,0,10.672,4.773,10.672,10.664C234.639,261.883,229.865,266.656,223.967,266.656z"/>
</g>
<path style="fill:#F6BB42;" d="M362.649,277.304H64.003c-5.891,0-10.664-4.781-10.664-10.671c0-5.898,4.773-10.672,10.664-10.672
	h298.646c5.906,0,10.688,4.773,10.688,10.672C373.337,272.522,368.555,277.304,362.649,277.304z"/>
<path style="fill:#656D78;" d="M181.335,511.984c-47.053,0-85.333-38.279-85.333-85.341c0-47.03,38.28-85.311,85.333-85.311
	c47.046,0,85.326,38.28,85.326,85.311C266.661,473.705,228.381,511.984,181.335,511.984z M181.335,362.644
	c-35.288,0-63.998,28.719-63.998,63.999c0,35.296,28.71,63.998,63.998,63.998s63.998-28.702,63.998-63.998
	C245.333,391.363,216.623,362.644,181.335,362.644z"/>
<g>
</g>
<g>
</g>
<g>
</g>
<g>
</g>
<g>
</g>
<g>
</g>
<g>
</g>
<g>
</g>
<g>
</g>
<g>
</g>
<g>
</g>
<g>
</g>
<g>
</g>
<g>
</g>
<g>
</g>
</svg>
