<?xml version="1.0" encoding="iso-8859-1"?>
<!-- Generator: Adobe Illustrator 19.0.0, SVG Export Plug-In . SVG Version: 6.00 Build 0)  -->
<svg version="1.1" id="Layer_1" xmlns="http://www.w3.org/2000/svg" xmlns:xlink="http://www.w3.org/1999/xlink" x="0px" y="0px"
	 viewBox="0 0 512 512" style="enable-background:new 0 0 512 512;" xml:space="preserve">
<path style="fill:#844414;" d="M132.414,238.345H61.793v141.241h19.421c-7.945,21.186-21.186,35.31-37.076,35.31h88.276
	c-15.007,0-29.131-14.124-37.076-35.31h37.076V238.345z"/>
<path style="fill:#CE8D5B;" d="M88.276,335.448c0,44.138-19.421,79.448-44.138,79.448S0,379.586,0,335.448S19.421,256,44.138,256
	S88.276,291.31,88.276,335.448"/>
<g>
	<path style="fill:#844414;" d="M44.138,384c-2.648,0-6.179-1.766-7.945-4.414c-2.648-5.297-9.71-20.303-9.71-44.138
		c0-23.834,7.062-38.841,9.71-44.138c2.648-4.414,7.945-5.297,12.359-3.531c4.414,2.648,5.297,7.945,3.531,12.359
		c-2.648,4.414-7.945,15.89-7.945,35.31s5.297,30.897,7.945,35.31c2.648,4.414,0.883,9.71-3.531,12.359
		C46.786,383.117,45.903,384,44.138,384"/>
	<path style="fill:#844414;" d="M467.862,256H132.414c24.717,0,44.138,35.31,44.138,79.448s-19.421,79.448-44.138,79.448h335.448
		c24.717,0,44.138-35.31,44.138-79.448S492.579,256,467.862,256"/>
</g>
<g>
	<path style="fill:#CE8D5B;" d="M247.172,300.138H169.49c-5.297,0-8.828-3.531-8.828-8.828c0-5.297,3.531-8.828,8.828-8.828h77.683
		c5.297,0,8.828,3.531,8.828,8.828C256,296.607,252.469,300.138,247.172,300.138"/>
	<path style="fill:#CE8D5B;" d="M335.448,300.138h-52.966c-5.297,0-8.828-3.531-8.828-8.828c0-5.297,3.531-8.828,8.828-8.828h52.966
		c5.297,0,8.828,3.531,8.828,8.828C344.276,296.607,340.745,300.138,335.448,300.138"/>
	<path style="fill:#CE8D5B;" d="M494.345,300.138H370.759c-5.297,0-8.828-3.531-8.828-8.828c0-5.297,3.531-8.828,8.828-8.828
		h123.586c5.297,0,8.828,3.531,8.828,8.828C503.172,296.607,499.641,300.138,494.345,300.138"/>
	<path style="fill:#CE8D5B;" d="M379.586,344.276h-26.483c-5.297,0-8.828-3.531-8.828-8.828c0-5.297,3.531-8.828,8.828-8.828h26.483
		c5.297,0,8.828,3.531,8.828,8.828C388.414,340.745,384.883,344.276,379.586,344.276"/>
	<path style="fill:#CE8D5B;" d="M300.138,344.276h-88.276c-5.297,0-8.828-3.531-8.828-8.828c0-5.297,3.531-8.828,8.828-8.828h88.276
		c5.297,0,8.828,3.531,8.828,8.828C308.966,340.745,305.434,344.276,300.138,344.276"/>
	<path style="fill:#CE8D5B;" d="M503.172,344.276h-79.448c-5.297,0-8.828-3.531-8.828-8.828c0-5.297,3.531-8.828,8.828-8.828h79.448
		c5.297,0,8.828,3.531,8.828,8.828C512,340.745,508.469,344.276,503.172,344.276"/>
	<path style="fill:#CE8D5B;" d="M256,388.414h-86.51c-5.297,0-8.828-3.531-8.828-8.828c0-5.297,3.531-8.828,8.828-8.828H256
		c5.297,0,8.828,3.531,8.828,8.828C264.828,384.883,261.297,388.414,256,388.414"/>
	<path style="fill:#CE8D5B;" d="M459.034,388.414h-70.621c-5.297,0-8.828-3.531-8.828-8.828c0-5.297,3.531-8.828,8.828-8.828h70.621
		c5.297,0,8.828,3.531,8.828,8.828C467.862,384.883,464.331,388.414,459.034,388.414"/>
	<path style="fill:#CE8D5B;" d="M326.621,388.414h-17.655c-5.297,0-8.828-3.531-8.828-8.828c0-5.297,3.531-8.828,8.828-8.828h17.655
		c5.297,0,8.828,3.531,8.828,8.828C335.448,384.883,331.917,388.414,326.621,388.414"/>
</g>
<path style="fill:#9E5A23;" d="M467.862,97.103H88.276c24.717,0,44.138,35.31,44.138,79.448S112.993,256,88.276,256h379.586
	C492.579,256,512,220.69,512,176.552S492.579,97.103,467.862,97.103"/>
<g>
	<path style="fill:#844414;" d="M203.034,141.241h-77.683c-5.297,0-8.828-3.531-8.828-8.828c0-5.297,3.531-8.828,8.828-8.828h77.683
		c5.297,0,8.828,3.531,8.828,8.828C211.862,137.71,208.331,141.241,203.034,141.241"/>
	<path style="fill:#844414;" d="M379.586,141.241H238.345c-5.297,0-8.828-3.531-8.828-8.828c0-5.297,3.531-8.828,8.828-8.828
		h141.241c5.297,0,8.828,3.531,8.828,8.828C388.414,137.71,384.883,141.241,379.586,141.241"/>
	<path style="fill:#844414;" d="M494.345,141.241H370.759c-5.297,0-8.828-3.531-8.828-8.828c0-5.297,3.531-8.828,8.828-8.828
		h123.586c5.297,0,8.828,3.531,8.828,8.828C503.172,137.71,499.641,141.241,494.345,141.241"/>
	<path style="fill:#844414;" d="M317.793,185.379H291.31c-5.297,0-8.828-3.531-8.828-8.828s3.531-8.828,8.828-8.828h26.483
		c5.297,0,8.828,3.531,8.828,8.828S323.09,185.379,317.793,185.379"/>
	<path style="fill:#844414;" d="M256,185.379h-88.276c-5.297,0-8.828-3.531-8.828-8.828s3.531-8.828,8.828-8.828H256
		c5.297,0,8.828,3.531,8.828,8.828S261.297,185.379,256,185.379"/>
	<path style="fill:#844414;" d="M379.586,185.379h-26.483c-5.297,0-8.828-3.531-8.828-8.828s3.531-8.828,8.828-8.828h26.483
		c5.297,0,8.828,3.531,8.828,8.828S384.883,185.379,379.586,185.379"/>
	<path style="fill:#844414;" d="M503.172,185.379h-79.448c-5.297,0-8.828-3.531-8.828-8.828s3.531-8.828,8.828-8.828h79.448
		c5.297,0,8.828,3.531,8.828,8.828S508.469,185.379,503.172,185.379"/>
	<path style="fill:#844414;" d="M211.862,229.517h-86.51c-5.297,0-8.828-3.531-8.828-8.828s3.531-8.828,8.828-8.828h86.51
		c5.297,0,8.828,3.531,8.828,8.828S217.159,229.517,211.862,229.517"/>
	<path style="fill:#844414;" d="M467.862,229.517h-70.621c-5.297,0-8.828-3.531-8.828-8.828s3.531-8.828,8.828-8.828h70.621
		c5.297,0,8.828,3.531,8.828,8.828S473.159,229.517,467.862,229.517"/>
	<path style="fill:#844414;" d="M353.103,229.517h-88.276c-5.297,0-8.828-3.531-8.828-8.828s3.531-8.828,8.828-8.828h88.276
		c5.297,0,8.828,3.531,8.828,8.828S358.4,229.517,353.103,229.517"/>
</g>
<path style="fill:#CE8D5B;" d="M132.414,176.552c0,44.138-19.421,79.448-44.138,79.448s-44.138-35.31-44.138-79.448
	s19.421-79.448,44.138-79.448S132.414,132.414,132.414,176.552"/>
<path style="fill:#844414;" d="M88.276,225.103c-2.648,0-6.179-1.766-7.945-4.414c-2.648-5.297-9.71-20.303-9.71-44.138
	s7.062-38.841,9.71-44.138c2.648-4.414,7.945-5.297,12.359-3.531c4.414,2.648,5.297,7.945,3.531,12.359
	c-2.648,4.414-7.945,15.89-7.945,35.31s5.297,30.897,7.945,35.31c2.648,4.414,0.883,9.71-3.531,12.359
	C90.924,224.221,90.041,225.103,88.276,225.103"/>
<path style="fill:#CE8D5B;" d="M176.552,335.448c0,44.138-19.421,79.448-44.138,79.448s-44.138-35.31-44.138-79.448
	S107.697,256,132.414,256S176.552,291.31,176.552,335.448"/>
<path style="fill:#844414;" d="M132.414,384c-2.648,0-6.179-1.766-7.945-4.414c-2.648-5.297-9.71-20.303-9.71-44.138
	c0-23.834,7.062-38.841,9.71-44.138c2.648-4.414,7.945-5.297,12.359-3.531c4.414,2.648,5.297,7.945,3.531,12.359
	c-2.648,4.414-7.945,15.89-7.945,35.31s5.297,30.897,7.945,35.31c2.648,4.414,0.883,9.71-3.531,12.359
	C135.062,383.117,134.179,384,132.414,384"/>
<g>
</g>
<g>
</g>
<g>
</g>
<g>
</g>
<g>
</g>
<g>
</g>
<g>
</g>
<g>
</g>
<g>
</g>
<g>
</g>
<g>
</g>
<g>
</g>
<g>
</g>
<g>
</g>
<g>
</g>
</svg>
