<?xml version="1.0" encoding="iso-8859-1"?>
<!-- Generator: Adobe Illustrator 19.0.0, SVG Export Plug-In . SVG Version: 6.00 Build 0)  -->
<svg version="1.1" id="Layer_1" xmlns="http://www.w3.org/2000/svg" xmlns:xlink="http://www.w3.org/1999/xlink" x="0px" y="0px"
	 viewBox="0 0 511.989 511.989" style="enable-background:new 0 0 511.989 511.989;" xml:space="preserve">
<rect x="36.324" y="455.994" style="fill:#E6E9ED;" width="443.67" height="43.998"/>
<path style="fill:#CCD1D9;" d="M469.336,479.99c0,5.889,4.75,10.654,10.656,10.654v-21.31
	C474.086,469.334,469.336,474.099,469.336,479.99z"/>
<path style="fill:#ED5564;" d="M51.87,469.428h428.122c5.875,0,10.656-4.766,10.656-10.656V10.664
	C490.648,4.773,485.867,0,479.992,0H63.995C40.433,0,21.34,19.102,21.34,42.663c0,0,0,0.008,0,0.016v394.874v21.219v21.219l0,0
	c0,17.67,14.328,31.998,31.999,31.998l0,0l0,0h426.653l0,0c5.875,0,10.656-4.781,10.656-10.656c0-5.906-4.781-10.688-10.656-10.688
	h-0.031H53.339l0,0c-5.891,0-10.672-4.781-10.672-10.654C42.667,474.615,46.682,470.146,51.87,469.428z"/>
<g style="opacity:0.2;">
	<path style="fill:#FFFFFF;" d="M479.992,0h-21.343c5.905,0,10.687,4.773,10.687,10.664v448.107c0,5.891-4.781,10.656-10.687,10.656
		h21.343c5.875,0,10.656-4.766,10.656-10.656V10.664C490.648,4.774,485.867,0,479.992,0z"/>
</g>
<g>
	<path style="fill:#DA4453;" d="M255.99,341.336c-5.891,0-10.656,4.766-10.656,10.656c-0.016,5.891,4.766,10.656,10.656,10.656
		c5.89,0,10.672-4.766,10.672-10.656S261.881,341.336,255.99,341.336z"/>
	<path style="fill:#DA4453;" d="M213.319,341.336c-2.531,0-4.859,0.875-6.688,2.359v-0.016c-0.031,0.031-3.094,2.344-6.968,3.438
		c-4.547,1.312-7.844,0.5-11.047-2.688c-8.703-8.656-20-11.531-31.812-8.062c-7.922,2.312-13.531,6.781-14.25,7.375
		c0,0.016-0.016,0.031-0.016,0.031h-0.016l0,0c-2.359,1.969-3.859,4.906-3.859,8.219c0,5.891,4.781,10.656,10.656,10.656
		c2.594,0,4.969-0.906,6.812-2.438l0,0c0.031-0.031,2.938-2.281,6.655-3.375c4.359-1.266,7.578-0.469,10.766,2.719
		c6.297,6.25,13.984,9.5,22.297,9.5c3.156,0,6.405-0.469,9.702-1.422c8.094-2.328,13.844-6.828,14.469-7.328l0,0
		c2.422-1.969,3.969-4.953,3.969-8.312C223.991,346.101,219.225,341.336,213.319,341.336z"/>
	<path style="fill:#DA4453;" d="M369.464,343.773L369.464,343.773L369.464,343.773c-0.031,0-0.031-0.016-0.031-0.031
		c-0.75-0.594-6.343-5.062-14.249-7.375c-11.812-3.469-23.125-0.594-31.812,8.062c-3.094,3.094-6.281,3.938-10.594,2.812
		c-4.188-1.062-7.469-3.594-7.5-3.609l0.062,0.047v0.016c-1.812-1.484-4.155-2.359-6.687-2.359c-5.875,0-10.656,4.766-10.656,10.656
		c0,3.359,1.562,6.344,3.969,8.312l0,0c0.625,0.5,6.375,5,14.468,7.328c3.281,0.953,6.531,1.422,9.688,1.422
		c8.312,0,16.031-3.25,22.312-9.5c3.062-3.078,6.156-3.922,10.312-2.844c4.031,1.062,7.156,3.531,7.188,3.562l-0.062-0.031
		c1.844,1.5,4.219,2.406,6.781,2.406c5.905,0,10.655-4.766,10.655-10.656C373.307,348.68,371.807,345.742,369.464,343.773z
		 M355.84,360.211L355.84,360.211h0.031H355.84z"/>
	<path style="fill:#DA4453;" d="M255.99,106.662c-5.891,0-10.656,4.781-10.656,10.671c0,5.891,4.766,10.664,10.656,10.664
		c5.89,0,10.672-4.773,10.672-10.664C266.662,111.443,261.881,106.662,255.99,106.662z"/>
	<path style="fill:#DA4453;" d="M298.653,127.997c2.531,0,4.874-0.891,6.687-2.367v0.008c0.031-0.023,3.094-2.328,6.969-3.445
		c4.562-1.305,7.875-0.5,11.062,2.695c6.281,6.266,13.938,9.5,22.156,9.5c3.156,0,6.375-0.477,9.656-1.43
		c7.938-2.32,13.53-6.797,14.249-7.391c0,0,0-0.008,0.031-0.016v-0.008l0,0c2.344-1.961,3.875-4.914,3.875-8.211
		c0-5.89-4.781-10.671-10.687-10.671c-2.594,0-4.969,0.922-6.812,2.453l0,0c0,0.023-2.938,2.273-6.656,3.367
		c-4.344,1.273-7.562,0.461-10.75-2.711c-8.688-8.64-20.062-11.507-32-8.078c-8.093,2.32-13.843,6.828-14.468,7.335l0,0
		c-2.406,1.961-3.969,4.945-3.969,8.304C287.997,123.224,292.778,127.997,298.653,127.997z"/>
	<path style="fill:#DA4453;" d="M220.022,109.029L220.022,109.029c-0.625-0.508-6.375-5.015-14.469-7.335
		c-11.952-3.438-23.312-0.562-31.999,8.078c-3.078,3.07-6.172,3.922-10.312,2.836c-4.015-1.055-7.14-3.523-7.171-3.547l0.031,0.031
		c-1.844-1.516-4.203-2.43-6.766-2.43c-5.891,0-10.672,4.781-10.672,10.671c0,3.297,1.5,6.25,3.859,8.211l0,0
		c0,0,0.016,0.008,0.016,0.016c0,0,0,0.008,0.016,0.008c0.703,0.586,6.312,5.062,14.25,7.391c3.266,0.953,6.499,1.43,9.64,1.43
		c8.234,0,15.875-3.234,22.172-9.5c3.094-3.094,6.266-3.93,10.609-2.812c4.187,1.078,7.437,3.586,7.468,3.617l-0.062-0.055v-0.008
		c1.828,1.477,4.156,2.367,6.688,2.367c5.906,0,10.672-4.773,10.672-10.664C223.991,113.974,222.444,110.99,220.022,109.029z
		 M156.118,109.107l0.016,0.008l0,0C156.134,109.115,156.134,109.115,156.118,109.107z"/>
</g>
<g>
	<path style="fill:#FFCE54;" d="M149.321,191.996c-3.234,0-6.125,1.453-8.078,3.726l-23.921,23.914L93.431,195.73
		c-1.969-2.281-4.859-3.734-8.109-3.734c-5.874,0-10.655,4.773-10.655,10.664l0,0v63.999l0,0c0,5.898,4.781,10.68,10.655,10.68
		c5.906,0,10.672-4.781,10.672-10.68v-38.187l13.797,13.789l0,0c1.922,1.93,4.594,3.125,7.531,3.125
		c2.953,0,5.624-1.195,7.546-3.125l0,0l13.797-13.789v38.187l0,0c0,5.898,4.781,10.68,10.656,10.68
		c5.906,0,10.672-4.781,10.672-10.68V202.66C159.993,196.769,155.227,191.996,149.321,191.996z"/>
	<path style="fill:#FFCE54;" d="M341.34,202.66c0-5.891-4.781-10.664-10.688-10.664c-5.875,0-10.656,4.773-10.656,10.664l0,0v34.538
		l-34.468-41.366l0,0c-1.969-2.343-4.905-3.835-8.218-3.835c-5.867,0-10.648,4.773-10.648,10.664l0,0v63.999l0,0
		c0,5.898,4.781,10.68,10.648,10.68c5.905,0,10.687-4.781,10.687-10.68v-34.538l34.468,41.374l0,0
		c1.969,2.344,4.906,3.844,8.188,3.844c5.906,0,10.688-4.781,10.688-10.68l-0.031-0.008v-63.975
		C341.308,202.667,341.34,202.667,341.34,202.66z"/>
	<path style="fill:#FFCE54;" d="M437.338,202.66c0-5.891-4.781-10.664-10.688-10.664c-5.875,0-10.656,4.773-10.656,10.664l0,0
		v37.334c0,8.82-7.188,16-16,16s-16-7.18-16-16l0,0v-37.319c0-0.008,0-0.008,0-0.016c0-5.891-4.78-10.664-10.655-10.664
		c-5.906,0-10.687,4.773-10.687,10.664l0,0v37.335l0,0c0,20.617,16.718,37.343,37.342,37.343c20.625,0,37.312-16.727,37.312-37.343
		v-37.319C437.306,202.667,437.338,202.667,437.338,202.66z"/>
	<path style="fill:#FFCE54;" d="M234.663,213.331c5.891,0,10.655-4.781,10.655-10.672s-4.765-10.664-10.655-10.664h-42.671
		c-5.891,0-10.656,4.773-10.656,10.664h-0.016v63.999h0.016c0,5.898,4.766,10.68,10.656,10.68h42.671
		c5.891,0,10.655-4.781,10.655-10.68c0-5.891-4.765-10.664-10.655-10.664h-32V245.33h21.328c5.891,0,10.672-4.781,10.672-10.671
		c0-5.891-4.781-10.664-10.672-10.664h-21.328v-10.664L234.663,213.331L234.663,213.331z"/>
</g>
<g>
</g>
<g>
</g>
<g>
</g>
<g>
</g>
<g>
</g>
<g>
</g>
<g>
</g>
<g>
</g>
<g>
</g>
<g>
</g>
<g>
</g>
<g>
</g>
<g>
</g>
<g>
</g>
<g>
</g>
</svg>
