<?xml version="1.0" encoding="iso-8859-1"?>
<!-- Generator: Adobe Illustrator 19.0.0, SVG Export Plug-In . SVG Version: 6.00 Build 0)  -->
<svg version="1.1" id="Layer_1" xmlns="http://www.w3.org/2000/svg" xmlns:xlink="http://www.w3.org/1999/xlink" x="0px" y="0px"
	 viewBox="0 0 448.943 448.943" style="enable-background:new 0 0 448.943 448.943;" xml:space="preserve">
<g>
	<g>
		<g>
			<g id="XMLID_27_">
				<g>
					<path style="fill:#1EA6C6;" d="M246.375,255.051c20.52,0,40.39-7.91,57.98-22.75v62.53h-26.9v125.4
						c-10.16,1.39-20.54,2.11-31.08,2.11c-58.79,0-112.38-22.3-152.75-58.91v-0.13c0-60.89,35.63-113.45,87.17-137.98
						C200.165,244.641,222.845,255.051,246.375,255.051z"/>
					<path style="fill:#008DB3;" d="M382.945,294.83h-24.55l-49.38-66.66c0.99-0.93,1.98-1.88,2.95-2.85
						C342.665,239.931,367.715,264.491,382.945,294.83z"/>
					<path style="fill:#FCD09F;" d="M246.375,33.005c46.66,0,84.49,37.82,84.49,84.48c0,46.67-37.83,110.49-84.49,110.49
						s-84.49-63.82-84.49-110.49C161.885,70.825,199.715,33.005,246.375,33.005z"/>
				</g>
			</g>
		</g>
		<g>
			<g id="XMLID_22_">
				<g>
					<path style="fill:#EF806F;" d="M175.17,198.272c2.59,3.69,5.27,7.15,8.04,10.4l-8.43,4.01c-28.06,13.35-51.8,34.24-68.67,60.41
						c-13.72,21.29-22.32,45.29-25.31,70.31c-30.49-8.31-58.05-23.72-80.8-44.35v-0.11c0-53.06,31.05-98.86,75.96-120.24
						c16.88,16.84,36.64,25.91,57.14,25.91c13.43,0,26.55-3.89,38.74-11.31C172.91,194.982,174.03,196.642,175.17,198.272z"/>
					<path style="fill:#EFC59C;" d="M147.89,117.482c0,17.54,4.56,36.84,12.68,54.98c-8.49,5.38-17.76,8.55-27.47,8.55
						c-40.66,0-73.62-55.61-73.62-96.28c0-40.66,32.96-73.61,73.62-73.61c22.55,0,42.74,10.14,56.24,26.11
						C164.27,55.112,147.89,84.422,147.89,117.482z"/>
				</g>
			</g>
		</g>
	</g>
	<polygon style="fill:#EF806F;" points="351.348,308.827 318.35,264.293 318.35,308.827 291.451,308.827 291.451,437.821 
		448.943,437.821 448.943,308.827 	"/>
	<g>
		<rect x="322.949" y="347.988" style="fill:#FFFFFF;" width="94.495" height="15"/>
		<rect x="322.949" y="383.986" style="fill:#FFFFFF;" width="94.495" height="15"/>
	</g>
</g>
<g>
</g>
<g>
</g>
<g>
</g>
<g>
</g>
<g>
</g>
<g>
</g>
<g>
</g>
<g>
</g>
<g>
</g>
<g>
</g>
<g>
</g>
<g>
</g>
<g>
</g>
<g>
</g>
<g>
</g>
</svg>
