<?xml version="1.0" encoding="iso-8859-1"?>
<!-- Generator: Adobe Illustrator 19.0.0, SVG Export Plug-In . SVG Version: 6.00 Build 0)  -->
<svg version="1.1" id="Layer_1" xmlns="http://www.w3.org/2000/svg" xmlns:xlink="http://www.w3.org/1999/xlink" x="0px" y="0px"
	 viewBox="0 0 512 512" style="enable-background:new 0 0 512 512;" xml:space="preserve">
<path style="fill:#EA8249;" d="M255.443,7.804L255.443,7.804c-54.183,0-98.108,43.924-98.108,98.108v397.169h196.216V105.912
	C353.551,51.728,309.626,7.804,255.443,7.804z"/>
<g>
	<path style="fill:#D36F3D;" d="M273.026,9.378c-5.705-1.032-11.58-1.574-17.582-1.574l0,0c-54.183,0-98.108,43.924-98.108,98.108
		v397.169H192.5V105.912C192.5,57.731,227.233,17.664,273.026,9.378z"/>
	<path style="fill:#D36F3D;" d="M237.861,9.378c5.705-1.032,11.58-1.574,17.582-1.574l0,0c54.183,0,98.108,43.924,98.108,98.108
		v397.169h-35.165V105.912C318.386,57.731,283.654,17.664,237.861,9.378z"/>
</g>
<path style="fill:#F9C573;" d="M404.325,59.366h-19.978c-17.008,0-30.796,13.787-30.796,30.796v412.919h117.308v-377.18
	C470.859,89.155,441.071,59.366,404.325,59.366z"/>
<path style="fill:#E2AF66;" d="M410.384,59.653c-1.997-0.181-4.016-0.287-6.059-0.287h-19.978
	c-17.008,0-30.796,13.787-30.796,30.796v412.919h30.194V90.162C383.745,74.564,395.343,61.684,410.384,59.653z"/>
<path style="fill:#F9C573;" d="M106.562,59.366h19.978c17.008,0,30.796,13.787,30.796,30.796v412.919H40.027v-377.18
	C40.027,89.155,69.815,59.366,106.562,59.366z"/>
<path style="fill:#E2AF66;" d="M131.26,59.726c-1.539-0.236-3.115-0.36-4.72-0.36h-19.978c-36.746,0-66.535,29.788-66.535,66.535
	v377.18h31.632v-377.18C71.659,91.497,97.773,63.195,131.26,59.726z"/>
<path style="fill:#F7CBA4;" d="M255.443,170.852L255.443,170.852c-54.183,0-98.108,43.924-98.108,98.108v55.743
	c0,54.183,43.924,98.108,98.108,98.108l0,0c54.183,0,98.108-43.924,98.108-98.108V268.96
	C353.551,214.777,309.626,170.852,255.443,170.852z"/>
<g>
	<path style="fill:#E0B394;" d="M186.399,324.703V268.96c0-49.246,36.284-90.013,83.577-97.034
		c-4.743-0.705-9.593-1.074-14.531-1.074l0,0c-54.183,0-98.108,43.924-98.108,98.108v55.743c0,54.183,43.924,98.108,98.108,98.108
		l0,0c4.938,0,9.79-0.369,14.531-1.074C222.683,414.716,186.399,373.949,186.399,324.703z"/>
	<path style="fill:#E0B394;" d="M324.488,324.703V268.96c0-49.246-36.284-90.013-83.577-97.034
		c4.743-0.705,9.593-1.074,14.531-1.074l0,0c54.183,0,98.108,43.924,98.108,98.108v55.743c0,54.183-43.924,98.108-98.108,98.108l0,0
		c-4.938,0-9.79-0.369-14.531-1.074C288.203,414.716,324.488,373.949,324.488,324.703z"/>
</g>
<path style="fill:#666666;" d="M321.822,196.74c-17.47,16.076-40.77,25.887-66.368,25.887s-48.909-9.811-66.379-25.887
	c17.459-16.087,40.77-25.887,66.368-25.887S304.352,180.663,321.822,196.74z"/>
<path d="M293.732,336.257c-10.078,10.078-23.479,15.629-37.731,15.629c-14.253,0-27.654-5.551-37.731-15.629
	c-3.265-3.265-8.559-3.267-11.825,0c-3.265,3.265-3.265,8.56,0,11.824c13.237,13.238,30.836,20.527,49.557,20.527
	c18.72,0,36.319-7.29,49.557-20.527c3.265-3.265,3.265-8.56,0-11.824C302.292,332.992,297,332.99,293.732,336.257z"/>
<path d="M214.733,296.464V283.09c0-4.618-3.743-8.361-8.361-8.361c-4.619,0-8.361,3.744-8.361,8.361v13.374
	c0,4.618,3.743,8.361,8.361,8.361C210.99,304.825,214.733,301.082,214.733,296.464z"/>
<path d="M292.425,256.672c3.527-3.527,8.218-5.47,13.206-5.47c4.989,0,9.678,1.942,13.204,5.47c1.633,1.633,3.773,2.449,5.913,2.449
	c2.139,0,4.28-0.816,5.912-2.449c3.267-3.265,3.267-8.559,0.001-11.824c-6.686-6.686-15.575-10.367-25.03-10.367
	c-9.454,0-18.344,3.681-25.029,10.367c-3.267,3.265-3.267,8.559-0.001,11.824C283.868,259.938,289.161,259.938,292.425,256.672z"/>
<path d="M206.371,251.203c4.988,0,9.677,1.942,13.203,5.47c1.633,1.633,3.773,2.449,5.913,2.449c2.139,0,4.28-0.816,5.912-2.449
	c3.267-3.265,3.267-8.559,0.001-11.824c-6.686-6.686-15.575-10.367-25.029-10.367c-9.455,0-18.344,3.682-25.03,10.367
	c-3.265,3.265-3.265,8.56,0.001,11.824c3.264,3.267,8.559,3.265,11.824,0C196.693,253.145,201.382,251.203,206.371,251.203z"/>
<path d="M305.631,274.729c-4.619,0-8.361,3.744-8.361,8.361v13.374c0,4.618,3.743,8.361,8.361,8.361s8.361-3.744,8.361-8.361V283.09
	C313.992,278.472,310.25,274.729,305.631,274.729z"/>
<path d="M256.001,331.586c11.68,0,21.182-9.502,21.182-21.182v-39.578c0-4.618-3.743-8.361-8.361-8.361
	c-4.619,0-8.361,3.744-8.361,8.361v39.578c0,2.459-2,4.459-4.459,4.459c-2.459,0-4.459-2-4.459-4.459v-39.578
	c0-4.618-3.743-8.361-8.361-8.361c-4.619,0-8.361,3.744-8.361,8.361v39.578C234.818,322.085,244.321,331.586,256.001,331.586z"/>
<path d="M471.416,412.938c4.619,0,8.361-3.744,8.361-8.361V126.459c0-41.298-33.599-74.896-74.896-74.896h-19.977
	c-12.259,0-23.216,5.667-30.401,14.514C338.562,27.342,300.418,0,256.001,0s-82.56,27.342-98.502,66.077
	c-7.185-8.848-18.142-14.514-30.401-14.514h-19.978c-41.298,0-74.896,33.599-74.896,74.896v377.18c0,4.618,3.743,8.361,8.361,8.361
	h117.309h196.216h117.308c4.619,0,8.361-3.744,8.361-8.361v-71.191c0-4.618-3.743-8.361-8.361-8.361s-8.361,3.744-8.361,8.361
	v62.829H362.47V325.261v-55.743V106.469V90.72c0-12.37,10.064-22.434,22.434-22.434h19.977c32.076,0,58.173,26.097,58.173,58.173
	v278.118C463.055,409.194,466.798,412.938,471.416,412.938z M345.747,495.277H166.254V382.488
	c18.934,29.588,52.087,49.242,89.746,49.242s70.813-19.654,89.746-49.242V495.277z M166.254,269.518
	c0-23.466,9.064-44.848,23.86-60.855c18.727,14.795,41.823,22.883,65.888,22.883c24.064,0,47.159-8.087,65.886-22.88
	c14.795,16.007,23.858,37.388,23.858,60.852v55.743c0,49.486-40.26,89.746-89.746,89.746s-89.746-40.26-89.746-89.746V269.518z
	 M202.784,197.307c14.901-11.011,33.31-17.536,53.217-17.536c19.909,0,38.318,6.525,53.219,17.538
	c-15.354,11.34-33.914,17.513-53.217,17.513C236.699,214.823,218.138,208.648,202.784,197.307z M256.001,163.048
	c-37.659,0-70.813,19.654-89.746,49.242v-46.296c0-4.618-3.743-8.361-8.361-8.361c-4.619,0-8.361,3.744-8.361,8.361v103.522v55.743
	v170.016H48.946V126.459c0-32.077,26.097-58.173,58.173-58.173h19.978c12.371,0,22.434,10.064,22.434,22.434v37.371
	c0,4.618,3.743,8.361,8.361,8.361c4.619,0,8.361-3.744,8.361-8.361v-21.622c0-49.486,40.26-89.746,89.746-89.746
	s89.746,40.26,89.746,89.746v105.822C326.814,182.702,293.661,163.048,256.001,163.048z"/>
<g>
</g>
<g>
</g>
<g>
</g>
<g>
</g>
<g>
</g>
<g>
</g>
<g>
</g>
<g>
</g>
<g>
</g>
<g>
</g>
<g>
</g>
<g>
</g>
<g>
</g>
<g>
</g>
<g>
</g>
</svg>
